<?xml version="1.0" standalone="no"?>
<!DOCTYPE svg PUBLIC "-//W3C//DTD SVG 20010904//EN"
 "http://www.w3.org/TR/2001/REC-SVG-20010904/DTD/svg10.dtd">
<svg version="1.0" xmlns="http://www.w3.org/2000/svg"
 width="327.000000pt" height="327.000000pt" viewBox="0 0 327.000000 327.000000"
 preserveAspectRatio="xMidYMid meet">
<metadata>
Created by potrace 1.14, written by Peter Selinger 2001-2017
</metadata>
<g transform="translate(0.000000,327.000000) scale(0.100000,-0.100000)"
fill="#000000" stroke="none">
<path d="M1571 3108 c-10 -24 -28 -71 -41 -105 l-24 -61 -81 -16 c-44 -9 -83
-16 -86 -16 -4 0 -40 43 -80 95 -41 52 -76 94 -79 93 -3 -2 -42 -17 -87 -33
l-83 -30 0 -121 0 -121 -68 -46 -69 -45 -107 60 -108 61 -68 -68 c-44 -43 -66
-73 -61 -79 5 -6 27 -53 48 -104 l40 -93 -45 -70 c-51 -78 -40 -75 -187 -55
-55 7 -101 13 -102 12 0 0 -19 -38 -41 -84 l-39 -82 84 -83 85 -83 -17 -86
-17 -86 -87 -22 c-47 -13 -101 -27 -119 -32 l-33 -9 3 -96 3 -95 104 -42 105
-41 18 -80 c9 -44 18 -82 18 -85 0 -3 -43 -39 -96 -79 -52 -40 -94 -78 -91
-85 2 -6 16 -46 32 -88 l28 -78 121 0 121 -1 45 -67 46 -68 -61 -106 -62 -105
65 -67 c35 -36 67 -66 72 -66 4 0 52 20 108 44 l100 44 69 -45 c37 -25 69 -47
71 -48 2 -2 -4 -54 -12 -116 -9 -62 -16 -117 -16 -121 0 -5 19 -17 43 -27 23
-10 61 -28 85 -39 l42 -20 81 84 c91 93 84 91 208 60 l44 -11 28 -100 c16 -55
29 -108 29 -117 0 -16 11 -18 98 -18 l99 0 38 98 c21 53 43 102 49 109 10 10
166 47 171 41 1 -2 32 -43 70 -93 38 -50 70 -92 72 -94 1 -2 42 12 92 30 l89
34 -5 115 -6 116 73 50 73 51 107 -63 108 -62 66 67 67 67 -46 107 -45 107 46
70 c26 38 52 70 58 70 6 0 56 -7 111 -15 55 -8 105 -15 111 -15 6 0 28 39 49
86 l39 87 -84 77 -83 76 7 42 c3 24 11 64 17 90 l10 48 115 29 115 29 -3 99
-3 98 -101 40 -101 39 -16 75 c-10 42 -17 81 -17 88 0 9 156 136 188 153 1 1
-11 37 -28 80 -16 43 -30 84 -30 91 0 9 -28 11 -118 6 l-119 -6 -51 73 -52 73
19 31 c10 17 37 64 60 104 l42 73 -50 58 c-79 91 -66 88 -186 37 l-106 -45
-69 44 c-47 30 -70 51 -70 64 0 19 16 152 25 202 4 24 -2 29 -82 63 l-86 38
-82 -82 -83 -83 -69 13 c-37 6 -75 14 -84 16 -10 3 -24 33 -38 87 -12 45 -27
97 -32 115 l-11 32 -94 0 -95 0 -18 -42z m169 -418 c415 -51 755 -319 888
-700 137 -391 40 -814 -253 -1105 -177 -176 -400 -281 -646 -304 -516 -49
-991 283 -1126 785 -24 89 -26 117 -27 269 0 152 3 180 26 266 126 463 531
782 1013 798 22 0 79 -4 125 -9z"/>
<path d="M1522 2543 c2 -42 8 -68 16 -71 8 -2 12 7 12 27 0 38 12 39 38 5 10
-15 24 -25 31 -23 9 3 6 13 -9 32 -12 15 -17 27 -12 27 14 0 23 30 17 51 -5
15 -16 19 -51 19 l-45 0 3 -67z m68 33 c0 -14 -34 -28 -44 -18 -15 14 -4 32
19 32 15 0 25 -6 25 -14z"/>
<path d="M1659 2594 c-16 -20 -3 -44 34 -62 15 -7 27 -17 27 -21 0 -17 -30
-20 -45 -5 -23 23 -38 13 -20 -14 9 -12 26 -22 39 -22 52 0 64 60 16 85 -31
16 -40 35 -17 35 7 0 18 -5 25 -12 15 -15 26 -4 19 17 -8 20 -61 20 -78 -1z"/>
<path d="M1412 2593 c-19 -4 -23 -9 -19 -26 3 -12 9 -44 13 -70 6 -43 9 -48
28 -43 11 3 31 6 44 6 13 0 22 6 22 15 0 13 -7 15 -35 9 -31 -5 -35 -4 -35 14
0 15 8 22 25 24 14 2 24 8 23 13 -2 6 -15 9 -30 7 -39 -5 -37 24 2 32 17 3 30
10 30 16 0 10 -25 11 -68 3z"/>
<path d="M1777 2578 c-15 -60 -19 -118 -9 -118 16 0 20 10 28 78 4 40 3 62 -4
62 -5 0 -12 -10 -15 -22z"/>
<path d="M1830 2584 c0 -4 7 -12 16 -18 14 -11 15 -17 1 -64 -10 -31 -12 -54
-6 -57 5 -4 11 0 14 7 3 7 11 31 18 53 10 28 20 41 35 43 33 5 26 18 -17 30
-43 13 -61 15 -61 6z"/>
<path d="M1342 2571 c-10 -6 -12 -21 -7 -55 4 -25 5 -46 2 -46 -2 0 -17 18
-32 40 -27 39 -45 51 -45 29 0 -19 71 -109 86 -109 11 0 14 17 14 75 0 41 -1
75 -2 75 -2 0 -9 -4 -16 -9z"/>
<path d="M1945 2485 c0 -74 7 -94 20 -55 3 11 23 36 43 54 40 38 38 59 -3 32
-27 -18 -25 -19 -41 32 -10 34 -19 4 -19 -63z"/>
<path d="M1216 2522 c-9 -15 43 -122 60 -122 10 0 8 13 -12 58 -28 64 -39 78
-48 64z"/>
<path d="M1157 2494 c-3 -3 4 -21 15 -40 22 -38 15 -43 -22 -14 -23 18 -60 27
-60 15 0 -18 65 -115 77 -115 12 0 11 6 -6 35 -24 41 -20 42 25 14 52 -32 59
-15 22 52 -32 58 -39 65 -51 53z"/>
<path d="M2103 2445 c-47 -33 -46 -109 2 -121 33 -8 50 -1 71 31 44 67 -10
134 -73 90z m63 -30 c9 -22 -23 -65 -47 -65 -27 0 -34 25 -15 55 18 28 53 33
62 10z"/>
<path d="M1040 2409 c0 -5 14 -28 31 -49 30 -38 32 -60 4 -60 -8 0 -29 18 -46
40 -20 25 -36 37 -42 31 -12 -12 48 -88 75 -97 23 -7 58 21 58 46 0 9 -14 35
-31 58 -30 41 -49 53 -49 31z"/>
<path d="M1485 2384 c-204 -38 -389 -163 -506 -342 -133 -203 -159 -465 -69
-705 40 -107 154 -255 260 -335 130 -100 351 -163 514 -147 333 32 586 240
687 565 34 108 34 302 0 410 -68 221 -192 373 -387 477 -150 80 -335 108 -499
77z m253 -33 c10 -6 -38 -70 -180 -239 l-193 -232 -202 0 -203 0 0 -215 0
-215 195 0 195 0 0 -250 c0 -137 -2 -250 -5 -250 -3 0 -27 11 -53 24 -241 122
-393 374 -393 651 -1 128 20 216 77 332 96 195 285 342 498 388 68 15 244 19
264 6z m200 -57 c109 -48 227 -149 298 -254 46 -68 49 -74 33 -65 -20 12 -459
357 -459 360 0 7 76 -18 128 -41z m-98 -29 c11 -13 9 -20 -15 -45 -16 -17 -31
-30 -34 -30 -3 1 -21 14 -40 30 l-34 29 27 36 27 35 28 -19 c15 -11 34 -27 41
-36z m82 -61 l37 -26 -27 -34 c-15 -19 -30 -34 -34 -34 -3 0 -21 12 -40 27
-18 15 -35 28 -37 30 -5 4 50 63 58 63 3 0 22 -12 43 -26z m-183 -10 c17 -14
31 -29 31 -32 -1 -4 -12 -20 -25 -36 l-24 -30 -40 29 c-23 15 -41 30 -41 33 0
9 53 62 61 62 4 0 21 -12 38 -26z m311 -114 c-4 -8 -17 -24 -29 -34 -20 -18
-21 -18 -56 8 -19 15 -35 30 -35 33 0 3 12 21 26 40 l25 33 39 -32 c28 -24 36
-37 30 -48z m-180 -10 c-4 -8 -17 -23 -28 -33 -23 -21 -43 -15 -76 22 -18 20
-18 21 8 56 l27 35 39 -32 c28 -24 36 -37 30 -48z m-206 31 l37 -30 -29 -32
-30 -33 -41 28 -40 28 26 34 c14 19 29 34 33 34 4 0 24 -13 44 -29z m465 -60
l34 -28 -28 -36 -29 -35 -38 31 c-21 17 -38 32 -38 35 0 10 46 61 55 61 6 0
25 -12 44 -28z m-180 -10 l34 -28 -28 -36 -27 -37 -39 31 c-22 17 -39 33 -39
36 0 10 45 62 55 62 6 0 25 -12 44 -28z m-180 -11 l33 -28 -27 -36 -27 -36
-27 20 c-54 38 -57 48 -26 80 16 17 31 30 34 30 3 -1 21 -14 40 -30z m-171
-20 l23 -19 -26 -36 -27 -35 -27 20 c-54 38 -57 48 -26 80 30 31 37 30 83 -10z
m629 -36 c18 -14 33 -29 33 -34 0 -5 -12 -23 -27 -40 l-28 -29 -37 32 -38 32
26 33 c14 17 28 32 31 32 3 0 21 -11 40 -26z m-181 -10 c19 -15 34 -30 34 -35
0 -5 -12 -22 -27 -39 l-28 -29 -37 32 -38 32 26 33 c14 17 28 32 30 32 3 0 21
-12 40 -26z m-174 -17 l37 -32 -32 -32 -32 -33 -38 33 -37 32 26 33 c14 17 28
32 32 32 4 0 24 -15 44 -33z m-179 -10 l38 -32 -33 -32 -33 -32 -38 32 -37 32
26 33 c14 17 28 32 32 32 4 -1 24 -15 45 -33z m-170 -19 l28 -23 -33 -32 -34
-33 -37 31 -37 30 26 35 c28 36 33 36 87 -8z m835 -254 c3 -100 1 -135 -16
-202 -52 -205 -184 -376 -363 -472 -31 -16 -60 -30 -63 -30 -3 0 -6 114 -6
253 l0 252 197 235 197 234 25 -74 c18 -56 25 -105 29 -196z m-181 194 c8 -10
4 -21 -16 -45 l-27 -33 -43 31 -42 32 32 33 32 33 27 -19 c15 -10 32 -25 37
-32z m-189 -47 c-12 -14 -26 -30 -30 -35 -3 -4 -25 7 -47 25 l-41 33 31 32 32
33 39 -31 39 -31 -23 -26z m-180 -10 c-12 -14 -26 -30 -30 -35 -4 -5 -25 6
-48 24 l-41 33 32 33 32 33 39 -31 39 -31 -23 -26z m-180 -10 c-13 -14 -26
-30 -30 -35 -4 -5 -25 6 -48 24 l-41 33 32 33 32 33 38 -31 39 -32 -22 -25z
m45 -150 l219 -171 -256 0 -256 0 0 201 0 201 38 -30 c20 -16 135 -106 255
-201z m-583 164 l0 -55 -50 0 -50 0 0 55 0 55 50 0 50 0 0 -55z m130 0 l0 -55
-50 0 -50 0 0 55 0 55 50 0 50 0 0 -55z m128 3 l-3 -53 -47 -3 -48 -3 0 55 0
56 51 0 50 0 -3 -52z m762 -50 c0 -4 -12 -22 -28 -39 l-27 -30 -37 28 c-21 15
-37 31 -38 35 0 3 12 20 26 37 l26 31 39 -27 c21 -16 39 -31 39 -35z m-191 -2
c10 -12 7 -20 -17 -47 l-29 -32 -36 29 c-21 16 -37 32 -37 36 0 3 12 20 26 37
l26 31 27 -20 c15 -10 33 -26 40 -34z m-178 -34 c-5 -10 -19 -26 -30 -36 -21
-19 -22 -19 -49 5 -15 13 -31 27 -36 31 -5 4 3 23 18 43 l27 36 40 -32 c30
-24 37 -34 30 -47z m-651 -47 l0 -55 -50 0 -50 0 0 55 0 55 50 0 50 0 0 -55z
m130 0 l0 -55 -50 0 -50 0 0 55 0 55 50 0 50 0 0 -55z m130 0 l0 -55 -50 0
-50 0 0 55 0 55 50 0 50 0 0 -55z m663 -39 c-16 -17 -29 -33 -30 -35 -2 -4
-31 15 -66 43 -18 14 -18 16 9 50 l28 35 43 -32 43 -31 -27 -30z m-173 29 c11
-13 9 -20 -11 -43 -13 -15 -25 -29 -26 -31 -3 -5 -83 50 -83 56 0 2 12 19 27
38 l27 34 26 -19 c15 -11 33 -26 40 -35z m82 -61 l38 -27 -23 -30 c-32 -41
-38 -42 -79 -9 l-36 28 25 32 c13 18 27 32 31 32 3 0 23 -12 44 -26z m-832
-64 l0 -50 -50 0 -50 0 0 50 0 50 50 0 50 0 0 -50z m130 0 l0 -50 -50 0 -50 0
0 50 0 50 50 0 50 0 0 -50z m130 0 l0 -50 -50 0 -50 0 0 50 0 50 50 0 50 0 0
-50z m130 -150 l0 -50 -50 0 -50 0 0 50 0 50 50 0 50 0 0 -50z m130 0 l0 -50
-50 0 -50 0 0 50 0 50 50 0 50 0 0 -50z m135 0 l0 -45 -52 -3 -53 -3 0 51 0
51 53 -3 52 -3 0 -45z m135 -1 l0 -50 -52 3 c-52 3 -53 4 -56 36 -5 54 2 62
58 62 l50 0 0 -51z m-400 -119 l0 -50 -50 0 -50 0 0 50 0 50 50 0 50 0 0 -50z
m130 0 l0 -50 -50 0 -50 0 0 50 0 50 50 0 50 0 0 -50z m138 -2 l3 -48 -55 0
-56 0 0 43 c0 24 3 47 7 51 4 4 28 6 53 4 l45 -3 3 -47z m130 0 l3 -48 -55 0
-56 0 0 43 c0 24 3 47 7 51 4 4 28 6 53 4 l45 -3 3 -47z m-398 -123 l0 -45
-50 0 -50 0 0 45 0 45 50 0 50 0 0 -45z m130 0 l0 -45 -50 0 -50 0 0 45 0 45
50 0 50 0 0 -45z m140 0 l0 -45 -55 0 -55 0 0 45 0 45 55 0 55 0 0 -45z m130
0 l0 -45 -55 0 -55 0 0 45 0 45 55 0 55 0 0 -45z m-400 -120 l0 -45 -50 0 -50
0 0 45 0 45 50 0 50 0 0 -45z m130 0 l0 -45 -50 0 -50 0 0 45 0 45 50 0 50 0
0 -45z m140 0 l0 -45 -55 0 -55 0 0 45 0 45 55 0 55 0 0 -45z m130 0 l0 -45
-55 0 -55 0 0 45 0 45 55 0 55 0 0 -45z m-40 -91 c-87 -28 -203 -39 -292 -26
-46 6 -103 18 -128 26 -42 13 -26 14 210 14 236 0 252 -1 210 -14z"/>
<path d="M2201 2341 c-40 -48 -50 -71 -32 -71 6 0 17 10 25 22 15 21 16 21 35
4 14 -13 21 -14 27 -5 4 7 -1 18 -11 26 -15 10 -16 16 -7 25 9 9 16 7 32 -7
14 -13 24 -15 31 -8 7 7 -1 18 -25 36 l-34 27 -41 -49z"/>
<path d="M2354 2247 c4 -19 -2 -30 -34 -56 -54 -43 -40 -60 15 -20 36 26 47
30 59 20 27 -23 28 8 0 44 -30 40 -49 46 -40 12z"/>
<path d="M867 2244 c-3 -3 17 -26 45 -51 l51 -45 30 30 c36 36 28 66 -9 31
l-23 -22 -39 32 c-42 33 -45 34 -55 25z"/>
<path d="M805 2161 c-7 -12 73 -121 88 -121 5 0 6 11 3 24 -9 35 3 56 30 56
37 0 28 18 -13 29 -78 19 -101 22 -108 12z m65 -31 c8 -5 11 -12 7 -16 -4 -4
-15 0 -24 9 -18 18 -8 23 17 7z"/>
<path d="M2373 2127 c-31 -18 -49 -35 -44 -40 5 -5 18 -4 32 3 19 11 24 10 36
-6 12 -16 10 -20 -12 -33 -23 -15 -30 -33 -12 -32 4 0 33 14 64 31 40 23 52
35 45 42 -8 8 -16 7 -28 -3 -14 -11 -18 -11 -31 6 -13 18 -12 21 6 34 23 15
28 31 9 30 -7 0 -37 -15 -65 -32z"/>
<path d="M744 2045 c-20 -31 -11 -61 26 -80 58 -30 100 -14 100 36 0 30 -13
44 -30 34 -8 -5 -7 -11 1 -21 20 -25 -10 -48 -45 -35 -34 13 -45 40 -23 56 10
7 17 17 17 24 0 20 -29 12 -46 -14z"/>
<path d="M2444 2017 c-28 -12 -52 -26 -53 -32 -2 -24 22 -75 36 -75 11 0 13 5
8 18 -21 48 2 84 23 37 13 -28 37 -35 29 -7 -2 9 -6 23 -8 31 -8 28 19 20 31
-9 19 -45 36 -23 19 24 -15 41 -17 42 -85 13z"/>
<path d="M706 1953 c-14 -14 -3 -22 56 -42 40 -14 65 -18 72 -11 6 6 3 12 -10
16 -10 4 -40 15 -65 25 -26 10 -50 15 -53 12z"/>
<path d="M686 1868 c-23 -32 -20 -54 10 -77 61 -48 140 -3 114 63 -12 33 -55
36 -65 5 -8 -25 1 -37 17 -21 19 19 30 14 26 -10 -3 -25 -26 -33 -64 -24 -28
7 -34 50 -8 60 8 3 12 10 9 16 -10 16 -23 12 -39 -12z"/>
<path d="M2535 1863 c-68 -15 -95 -25 -95 -33 0 -6 11 -10 25 -10 18 0 28 -7
35 -25 6 -17 17 -25 32 -25 38 0 50 14 46 55 -3 40 -10 46 -43 38z m23 -46 c2
-12 -3 -17 -17 -17 -12 0 -21 6 -21 13 0 31 32 34 38 4z"/>
<path d="M672 1734 c-26 -18 -29 -56 -6 -78 43 -44 117 -25 122 31 5 54 -65
83 -116 47z m88 -29 c24 -29 -20 -56 -64 -39 -16 6 -22 35 -9 47 12 13 60 7
73 -8z"/>
<path d="M2488 1733 c-37 -6 -36 -23 2 -23 25 0 30 -4 30 -25 0 -21 -5 -25
-31 -25 -20 0 -29 -4 -26 -12 2 -7 9 -13 15 -12 7 1 37 2 67 3 42 1 55 5 55
16 0 9 -9 15 -24 15 -15 0 -26 7 -29 19 -3 15 2 20 24 25 16 3 29 10 29 16 0
10 -57 11 -112 3z"/>
<path d="M767 1580 c5 -29 4 -30 -33 -30 -48 0 -84 -9 -84 -21 0 -10 100 -12
124 -3 22 8 23 84 1 84 -11 0 -13 -8 -8 -30z"/>
<path d="M2460 1595 c0 -12 14 -15 70 -15 56 0 70 3 70 15 0 12 -14 15 -70 15
-56 0 -70 -3 -70 -15z"/>
<path d="M2456 1525 c-4 -19 -4 -40 -1 -45 10 -17 25 -1 25 27 0 25 1 25 60
18 39 -5 60 -3 60 3 0 16 -9 19 -76 26 l-62 7 -6 -36z"/>
<path d="M692 1484 c-43 -30 -17 -104 37 -104 25 0 62 17 73 34 38 57 -49 113
-110 70z m86 -38 c5 -23 -14 -36 -51 -36 -32 0 -45 23 -26 46 18 21 73 15 77
-10z"/>
<path d="M2450 1447 c0 -10 19 -18 61 -26 34 -7 63 -10 66 -7 12 11 -10 24
-53 31 -26 3 -53 9 -60 12 -8 3 -14 -1 -14 -10z"/>
<path d="M2432 1398 c3 -7 15 -14 27 -16 19 -3 22 -8 16 -29 -8 -32 10 -53 45
-53 24 0 30 6 40 36 7 19 10 37 8 38 -5 6 -115 36 -128 36 -6 0 -10 -6 -8 -12z
m108 -47 c0 -3 -5 -13 -10 -21 -12 -19 -35 2 -27 24 6 15 37 12 37 -3z"/>
<path d="M752 1351 c-29 -10 -53 -21 -52 -27 1 -10 11 -10 55 1 l30 8 -32 -35
c-27 -27 -43 -59 -30 -58 23 2 122 41 125 50 5 13 -17 10 -65 -6 -12 -5 -7 4
15 27 33 36 41 60 20 58 -7 -1 -37 -9 -66 -18z"/>
<path d="M2400 1289 c0 -6 9 -13 21 -16 16 -5 19 -11 14 -35 -14 -63 54 -83
82 -23 9 19 15 36 12 38 -10 8 -109 47 -118 47 -6 0 -11 -5 -11 -11z m89 -48
c16 -10 6 -31 -15 -31 -8 0 -14 9 -14 20 0 22 7 25 29 11z"/>
<path d="M801 1230 c-45 -22 -61 -34 -54 -41 8 -8 17 -8 32 0 17 9 22 8 31 -8
14 -26 13 -28 -10 -34 -11 -3 -20 -12 -20 -21 0 -13 12 -10 65 16 37 19 61 36
56 41 -5 5 -18 4 -31 -3 -18 -10 -24 -9 -31 1 -14 22 -10 37 11 44 11 3 20 13
20 21 0 18 6 19 -69 -16z"/>
<path d="M2352 1188 c7 -20 108 -72 119 -61 6 6 -12 21 -50 41 -65 35 -75 38
-69 20z"/>
<path d="M2326 1153 c-4 -4 7 -19 24 -33 l31 -26 -41 4 c-67 7 -69 -11 -9 -52
30 -20 57 -36 61 -36 18 0 6 20 -24 40 l-33 21 47 -4 c62 -6 77 10 35 38 -71
48 -84 55 -91 48z"/>
<path d="M897 1133 c-13 -12 -7 -23 12 -23 29 0 33 -27 8 -50 -27 -25 -61 -23
-63 5 -1 11 -2 24 -3 29 -2 13 -31 -15 -31 -30 0 -28 40 -56 68 -49 37 9 72
44 72 71 0 36 -43 68 -63 47z"/>
<path d="M985 1050 c-4 -6 3 -22 14 -34 18 -19 19 -25 8 -34 -11 -9 -18 -8
-32 8 -10 11 -22 17 -27 14 -5 -3 0 -16 12 -29 18 -19 19 -24 6 -34 -12 -10
-18 -8 -32 14 -12 18 -20 23 -28 15 -7 -7 -1 -20 22 -42 l32 -33 50 50 50 51
-34 33 c-23 22 -36 29 -41 21z"/>
<path d="M2228 1026 c-33 -41 -24 -56 12 -21 22 22 29 23 38 12 9 -11 7 -18
-8 -32 -11 -10 -20 -22 -20 -27 0 -13 22 -9 41 8 28 26 44 6 18 -22 -35 -37
-13 -42 24 -6 l32 33 -50 44 c-27 24 -52 44 -55 45 -3 0 -17 -15 -32 -34z"/>
<path d="M2147 952 c-21 -23 -22 -46 -1 -67 15 -15 27 -14 72 2 6 3 12 -2 12
-11 0 -11 -9 -16 -26 -16 -16 0 -24 -5 -22 -12 7 -20 38 -21 59 -2 41 37 7 84
-46 64 -35 -13 -35 -13 -35 10 0 15 7 20 26 20 16 0 24 5 22 13 -7 20 -43 19
-61 -1z"/>
<path d="M1059 910 c-26 -32 -35 -37 -50 -30 -36 20 -29 -9 10 -39 28 -23 42
-28 47 -19 4 6 2 14 -4 16 -18 6 -15 16 18 57 17 21 30 42 30 46 0 20 -21 7
-51 -31z"/>
<path d="M1322 788 c-16 -16 -15 -33 3 -52 19 -18 42 -11 50 15 12 36 -27 63
-53 37z"/>
<path d="M1883 781 c-17 -28 10 -65 38 -51 21 12 25 40 7 58 -17 17 -31 15
-45 -7z"/>
<path d="M1467 762 c-21 -23 -22 -36 -2 -28 12 4 15 -3 15 -34 0 -29 4 -40 15
-40 12 0 15 13 15 60 0 65 -12 76 -43 42z"/>
<path d="M1552 768 c-27 -27 0 -77 34 -64 10 4 14 2 11 -6 -2 -8 -16 -12 -32
-10 -25 3 -27 1 -16 -12 31 -37 71 -11 71 44 0 39 -14 60 -40 60 -9 0 -21 -5
-28 -12z m43 -28 c0 -7 -6 -15 -12 -17 -8 -3 -13 4 -13 17 0 13 5 20 13 18 6
-3 12 -11 12 -18z"/>
<path d="M1652 768 c-17 -17 -15 -83 3 -98 37 -31 78 23 59 78 -10 30 -42 40
-62 20z m38 -48 c0 -42 -14 -54 -25 -20 -7 23 2 60 16 60 5 0 9 -18 9 -40z"/>
<path d="M1758 766 c-22 -16 -24 -38 -3 -30 12 5 15 -3 15 -35 0 -23 5 -41 10
-41 6 0 10 27 10 60 0 63 -4 68 -32 46z"/>
</g>
</svg>
